<svg width="25" height="25" viewBox="0 0 25 25" fill="none" xmlns="http://www.w3.org/2000/svg">
<g clip-path="url(#clip0_1347_4290)">
<path d="M24.5014 8.97433C24.4686 9.61183 24.192 10.0759 23.6249 10.329C23.0577 10.5821 22.5046 10.4978 22.0499 10.0759C21.1171 9.21339 20.1186 8.45402 18.9983 7.8587C16.5139 6.53683 13.8702 6.0212 11.0717 6.31183C8.00142 6.63058 5.32955 7.85401 3.08424 9.97276C2.48424 10.54 1.69674 10.5681 1.15767 10.2025C0.351424 9.64933 0.267049 8.53839 1.01236 7.88214C1.67799 7.2962 2.36236 6.71495 3.08892 6.20402C4.75767 5.02745 6.59986 4.23058 8.58736 3.75714C10.5374 3.2837 12.5577 3.16652 14.5452 3.41964C18.0936 3.86495 21.1874 5.29933 23.8264 7.72276C24.1217 7.99464 24.3889 8.27589 24.4639 8.68839C24.4827 8.78214 24.4921 8.88527 24.5014 8.97433Z" fill="#364152"/>
<path d="M12.9983 8.19629C15.7123 8.23848 18.4733 9.35879 20.7748 11.59C21.3701 12.1666 21.3936 13.09 20.8311 13.6666C20.2451 14.2713 19.3358 14.29 18.7311 13.6994C17.292 12.2932 15.5764 11.426 13.5748 11.2057C10.8139 10.901 8.39045 11.6838 6.37482 13.6104C5.77951 14.1775 5.08576 14.2385 4.5467 13.9525C3.66076 13.4838 3.49201 12.3072 4.21857 11.59C5.1467 10.6619 6.22951 9.90254 7.41545 9.33535C9.02795 8.57129 10.7295 8.19629 12.9983 8.19629Z" fill="#364152"/>
<path d="M12.5146 13.0898C14.4927 13.132 16.1802 13.8539 17.5443 15.3023C18.1302 15.9211 18.1115 16.8352 17.5115 17.407C16.9115 17.9789 16.0021 17.9508 15.4115 17.3273C14.624 16.4977 13.663 16.0523 12.524 16.043C11.3849 16.0336 10.4099 16.4602 9.6271 17.2945C8.82553 18.1523 7.48022 17.8898 7.1146 16.7977C6.93178 16.2539 7.04428 15.7477 7.43803 15.3305C8.80678 13.8586 10.5083 13.1273 12.5146 13.0898Z" fill="#364152"/>
<path d="M12.5239 18.1853C13.5177 18.2088 14.3005 19.0056 14.2864 19.99C14.2677 20.9697 13.4567 21.7525 12.4723 21.7338C11.4973 21.715 10.7192 20.9135 10.7286 19.9338C10.7473 18.9447 11.5583 18.1619 12.5239 18.1853Z" fill="#364152"/>
</g>
<defs>
<clipPath id="clip0_1347_4290">
<rect width="24" height="24" fill="white" transform="translate(0.501953 0.508789)"/>
</clipPath>
</defs>
</svg>
