<svg width="54" height="50" viewBox="0 0 54 50" fill="none" xmlns="http://www.w3.org/2000/svg">
<path d="M27.2705 43.0304L27.9821 42.7932C34.1102 40.7505 37.1743 39.7292 37.7448 37.3125C38.3153 34.8958 36.0315 32.612 31.4639 28.0444L26.9591 23.5396C26.9551 23.5522 26.9509 23.5654 26.9466 23.5791C26.8943 23.7439 26.8186 23.9867 26.7273 24.2918C26.5443 24.9029 26.3003 25.7587 26.0567 26.7342C25.558 28.731 25.1054 31.0593 25.1054 32.8139C25.1054 34.5684 25.558 36.8967 26.0567 38.8935C26.3003 39.869 26.5443 40.7248 26.7273 41.3359C26.8186 41.641 26.8943 41.8838 26.9466 42.0486C26.9727 42.131 26.993 42.1938 27.0064 42.235L27.0213 42.2805L27.0246 42.2906L27.2705 43.0304Z" fill="#2B2390"/>
<path d="M12.4242 47.9768C6.39336 49.9651 3.21586 50.7971 1.45814 49.0394C-0.488208 47.0931 0.740865 43.4058 3.19901 36.0314L7.70434 22.5154C9.3897 17.4593 10.3798 14.489 12.032 13.2841L12.018 13.353C11.9988 13.4487 11.971 13.5887 11.936 13.7687C11.8659 14.1286 11.7669 14.6492 11.6501 15.2976C11.4165 16.5937 11.1107 18.4049 10.8211 20.4686C10.2474 24.5572 9.71604 29.7811 9.98978 33.9556C10.1554 36.4816 10.6809 39.6151 11.1499 42.0636C11.3867 43.2993 11.6132 44.3823 11.7808 45.1568C11.8646 45.5443 11.9338 45.8553 11.9822 46.0703L12.0386 46.3186L12.4242 47.9768Z" fill="#2B2390"/>
<path d="M16.1011 13.3572L15.9659 14.0113L15.9646 14.0177L15.9597 14.0417L15.9397 14.1407C15.922 14.229 15.8957 14.361 15.8623 14.5328C15.7954 14.8764 15.6999 15.3787 15.5867 16.0071C15.36 17.2647 15.0631 19.0234 14.7823 21.0244C14.2153 25.0653 13.7357 29.9504 13.9812 33.6939C14.1298 35.9603 14.6152 38.8922 15.0785 41.311C15.308 42.5089 15.5279 43.5601 15.6904 44.3112C15.7716 44.6866 15.8382 44.9864 15.8844 45.1914L15.9375 45.4253L15.9511 45.4843L16.2359 46.7086L23.4758 44.2953L23.2025 43.472C23.1863 43.4222 23.1631 43.3504 23.134 43.2586C23.0757 43.075 22.9935 42.8111 22.8953 42.483C22.6991 41.8277 22.4377 40.9111 22.1759 39.8627C21.6636 37.8115 21.1054 35.0853 21.1054 32.8139C21.1054 30.5424 21.6636 27.8162 22.1759 25.765C22.4377 24.7166 22.6991 23.8 22.8953 23.1447C22.9935 22.8166 23.0757 22.5527 23.134 22.3691C23.1631 22.2773 23.1863 22.2055 23.2025 22.1557L23.2268 22.0814L23.7941 20.3746L22.4532 19.0337C19.6702 16.2507 17.735 14.3155 16.1011 13.3572Z" fill="#2B2390"/>
<path d="M21.6373 0.293889C22.5797 0.870017 22.8767 2.10104 22.3005 3.04346C21.8825 3.72733 21.9872 4.60856 22.554 5.17533L22.815 5.43635C24.3848 7.0061 24.9636 9.31216 24.3213 11.4372C24.0017 12.4945 22.8854 13.0925 21.8281 12.7729C20.7708 12.4533 20.1728 11.3371 20.4924 10.2798C20.7081 9.56623 20.5137 8.79188 19.9866 8.26477L19.7256 8.00376C17.8522 6.13037 17.5059 3.21756 18.8877 0.957115C19.4639 0.0146974 20.6949 -0.282239 21.6373 0.293889Z" fill="#2B2390"/>
<path d="M28.6629 5.72422C29.1991 5.18807 29.4671 4.92 29.7771 4.82174C30.0393 4.73862 30.3207 4.73862 30.5829 4.82174C30.8929 4.92 31.161 5.18807 31.6971 5.72422C32.2333 6.26037 32.5013 6.52845 32.5996 6.83842C32.6827 7.1006 32.6827 7.38206 32.5996 7.64425C32.5013 7.95421 32.2333 8.22228 31.6971 8.75843C31.161 9.29458 30.8929 9.56266 30.5829 9.66093C30.3207 9.74404 30.0393 9.74404 29.7771 9.66093C29.4671 9.56266 29.1991 9.29459 28.6629 8.75844C28.1268 8.22229 27.8587 7.95421 27.7604 7.64425C27.6773 7.38206 27.6773 7.1006 27.7604 6.83842C27.8587 6.52845 28.1268 6.26038 28.6629 5.72422Z" fill="#2B2390"/>
<path d="M10.9725 4.50907C11.5311 3.95048 12.4367 3.95048 12.9953 4.50907C13.5539 5.06765 13.5539 5.97329 12.9953 6.53188C12.4367 7.09046 11.5311 7.09046 10.9725 6.53188C10.4139 5.97329 10.4139 5.06765 10.9725 4.50907Z" fill="#2B2390"/>
<path d="M45.7661 12.7915C45.397 12.9337 45.0698 13.2609 44.4154 13.9153C43.7611 14.5696 43.4339 14.8968 43.2916 15.2659C43.1252 15.6979 43.1252 16.1763 43.2916 16.6082C43.4339 16.9773 43.7611 17.3045 44.4154 17.9589C45.0698 18.6132 45.397 18.9404 45.7661 19.0826C46.198 19.2491 46.6764 19.2491 47.1084 19.0826C47.4775 18.9404 47.8046 18.6132 48.459 17.9589C49.1134 17.3045 49.4406 16.9773 49.5828 16.6082C49.7492 16.1763 49.7492 15.6979 49.5828 15.2659C49.4406 14.8968 49.1134 14.5696 48.459 13.9153C47.8046 13.2609 47.4775 12.9337 47.1084 12.7915C46.6764 12.6251 46.198 12.6251 45.7661 12.7915Z" fill="#2B2390"/>
<path d="M43.3214 34.8356C43.88 34.277 44.7857 34.277 45.3443 34.8356C45.9028 35.3942 45.9028 36.2998 45.3443 36.8584C44.7857 37.417 43.88 37.417 43.3214 36.8584C42.7629 36.2998 42.7629 35.3942 43.3214 34.8356Z" fill="#2B2390"/>
<path d="M39.6714 6.59131C40.7545 6.80793 41.4569 7.86158 41.2403 8.9447L40.8563 10.8645C40.3279 13.5067 38.4242 15.6632 35.868 16.5152C34.6735 16.9134 33.784 17.921 33.5371 19.1557L33.1531 21.0755C32.9365 22.1586 31.8828 22.861 30.7997 22.6444C29.7166 22.4278 29.0142 21.3741 29.2308 20.291L29.6148 18.3712C30.1432 15.729 32.0469 13.5726 34.6031 12.7205C35.7976 12.3223 36.6871 11.3147 36.934 10.0801L37.318 8.16024C37.5346 7.07712 38.5883 6.37468 39.6714 6.59131Z" fill="#2B2390"/>
<path d="M49.5886 27.4923C48.6241 27.0706 47.5023 27.2477 46.7147 27.9462C44.5567 29.8598 41.4162 30.1778 38.9184 28.7357L38.3508 28.408C37.3942 27.8557 37.0665 26.6325 37.6188 25.6759C38.171 24.7193 39.3942 24.3916 40.3508 24.9439L40.9184 25.2716C41.9252 25.8528 43.191 25.7247 44.0608 24.9534C46.015 23.2205 48.798 22.781 51.1911 23.8273L51.9684 24.1672C52.9804 24.6097 53.4422 25.7888 52.9996 26.8009C52.5571 27.813 51.378 28.2747 50.3659 27.8322L49.5886 27.4923Z" fill="#2B2390"/>
<path d="M39.1672 19.9776C39.7258 19.419 40.6314 19.419 41.19 19.9776C41.7486 20.5362 41.7486 21.4418 41.19 22.0004C40.6314 22.559 39.7258 22.559 39.1672 22.0004C38.6086 21.4418 38.6086 20.5362 39.1672 19.9776Z" fill="#2B2390"/>
</svg>
