<svg width="81" height="80" viewBox="0 0 81 80" fill="none" xmlns="http://www.w3.org/2000/svg">
<path d="M6.75 27.5H20.5V41.25H6.75V27.5Z" fill="#60B17B"/>
<path d="M60.5 33.7498H8C7.67836 33.7403 7.36611 33.8589 7.13176 34.0794C6.89742 34.2999 6.76012 34.6044 6.75 34.926V69.0435C6.79017 70.3302 7.33922 71.5484 8.27662 72.4308C9.21403 73.3131 10.4632 73.7875 11.75 73.7498H60.5C62.0705 73.8289 63.6086 73.2843 64.7793 72.2344C65.95 71.1845 66.6583 69.7146 66.75 68.1448V39.3548C66.6583 37.7849 65.95 36.315 64.7793 35.2651C63.6086 34.2152 62.0705 33.6706 60.5 33.7498Z" fill="#60B17B"/>
<path d="M68 46.25H55.5C53.1794 46.25 50.9538 47.1719 49.3128 48.8128C47.6719 50.4538 46.75 52.6794 46.75 55C46.75 57.3206 47.6719 59.5462 49.3128 61.1872C50.9538 62.8281 53.1794 63.75 55.5 63.75H68C68.3315 63.75 68.6495 63.6183 68.8839 63.3839C69.1183 63.1495 69.25 62.8315 69.25 62.5V47.5C69.25 47.1685 69.1183 46.8505 68.8839 46.6161C68.6495 46.3817 68.3315 46.25 68 46.25Z" fill="#D0E4DC"/>
<path d="M58 58.75C60.0711 58.75 61.75 57.0711 61.75 55C61.75 52.9289 60.0711 51.25 58 51.25C55.9289 51.25 54.25 52.9289 54.25 55C54.25 57.0711 55.9289 58.75 58 58.75Z" fill="#60B17B"/>
<path d="M13 21.25H59.25V33.75H13C11.3424 33.75 9.75269 33.0915 8.58058 31.9194C7.40848 30.7473 6.75 29.1576 6.75 27.5C6.75 25.8424 7.40848 24.2527 8.58058 23.0806C9.75269 21.9085 11.3424 21.25 13 21.25Z" fill="#D0E4DC"/>
<path d="M59.25 36.25C67.5343 36.25 74.25 29.5343 74.25 21.25C74.25 12.9657 67.5343 6.25 59.25 6.25C50.9657 6.25 44.25 12.9657 44.25 21.25C44.25 29.5343 50.9657 36.25 59.25 36.25Z" fill="#60B17B"/>
<path d="M66.75 28.75C66.4185 28.75 66.1005 28.6183 65.8661 28.3839C65.6317 28.1495 65.5 27.8315 65.5 27.5C65.4964 24.1859 64.1782 21.0086 61.8348 18.6652C59.4914 16.3218 56.3141 15.0036 53 15C52.6685 15 52.3505 14.8683 52.1161 14.6339C51.8817 14.3995 51.75 14.0815 51.75 13.75C51.75 13.4185 51.8817 13.1005 52.1161 12.8661C52.3505 12.6317 52.6685 12.5 53 12.5C56.9769 12.5043 60.7897 14.086 63.6018 16.8981C66.414 19.7103 67.9957 23.5231 68 27.5C68 27.8315 67.8683 28.1495 67.6339 28.3839C67.3995 28.6183 67.0815 28.75 66.75 28.75Z" fill="#D0E4DC"/>
<path d="M61.75 28.75C61.4185 28.75 61.1005 28.6183 60.8661 28.3839C60.6317 28.1495 60.5 27.8315 60.5 27.5C60.498 25.5115 59.7072 23.605 58.3011 22.1989C56.895 20.7928 54.9885 20.002 53 20C52.6685 20 52.3505 19.8683 52.1161 19.6339C51.8817 19.3995 51.75 19.0815 51.75 18.75C51.75 18.4185 51.8817 18.1005 52.1161 17.8661C52.3505 17.6317 52.6685 17.5 53 17.5C55.6513 17.503 58.1931 18.5575 60.0678 20.4322C61.9425 22.3069 62.997 24.8487 63 27.5C63 27.8315 62.8683 28.1495 62.6339 28.3839C62.3995 28.6183 62.0815 28.75 61.75 28.75Z" fill="#D0E4DC"/>
<path d="M56.75 28.75C56.4185 28.75 56.1005 28.6183 55.8661 28.3839C55.6317 28.1495 55.5 27.8315 55.5 27.5C55.5 26.837 55.2366 26.2011 54.7678 25.7322C54.2989 25.2634 53.663 25 53 25C52.6685 25 52.3505 24.8683 52.1161 24.6339C51.8817 24.3995 51.75 24.0815 51.75 23.75C51.75 23.4185 51.8817 23.1005 52.1161 22.8661C52.3505 22.6317 52.6685 22.5 53 22.5C54.3261 22.5 55.5979 23.0268 56.5355 23.9645C57.4732 24.9021 58 26.1739 58 27.5C58 27.8315 57.8683 28.1495 57.6339 28.3839C57.3995 28.6183 57.0815 28.75 56.75 28.75Z" fill="#D0E4DC"/>
</svg>
