<svg width="38" height="38" viewBox="0 0 38 38" fill="none" xmlns="http://www.w3.org/2000/svg">
<rect width="38" height="38" rx="16" fill="white"/>
<path d="M9.66666 13.1667H28.3333" stroke="currentColor" stroke-width="1.16667"/>
<path d="M9.66666 24.8333H28.3333" stroke="currentColor" stroke-width="1.16667"/>
<path d="M9.66666 16.6667C9.66666 12.2669 9.66666 10.067 11.0335 8.70018C12.4003 7.33334 14.6002 7.33334 19 7.33334C23.3998 7.33334 25.5997 7.33334 26.9665 8.70018C28.3333 10.067 28.3333 12.2669 28.3333 16.6667V21.3333C28.3333 25.7331 28.3333 27.933 26.9665 29.2998C25.5997 30.6667 23.3998 30.6667 19 30.6667C14.6002 30.6667 12.4003 30.6667 11.0335 29.2998C9.66666 27.933 9.66666 25.7331 9.66666 21.3333V16.6667Z" stroke="currentColor" stroke-width="1.75"/>
<path d="M22.5 10.8333H15.5" stroke="currentColor" stroke-width="1.75" stroke-linecap="round"/>
<circle cx="19" cy="27.1667" r="1.16667" stroke="currentColor" stroke-width="1.16667"/>
</svg>
