<svg width="69" height="25" viewBox="0 0 69 25" fill="none" xmlns="http://www.w3.org/2000/svg">
<g clip-path="url(#clip0_887_2519)">
<path d="M7.97265 6.61071C6.97525 5.61252 6.79472 3.97806 7.55037 2.78623L7.95383 2.15076C7.98763 2.09751 8.03297 2.05253 8.08649 2.01915C8.14001 1.98578 8.20035 1.96485 8.26304 1.95793C8.32574 1.951 8.38919 1.95825 8.4487 1.97914C8.50822 2.00003 8.56228 2.03403 8.60689 2.07862L9.13899 2.61085C10.1365 3.60863 10.3169 5.2435 9.56138 6.43492L8.87595 7.51438L7.97265 6.61071ZM11.3094 9.26128C10.6088 7.77688 11.3891 6.01152 12.9512 5.49257L13.0792 5.4506C13.2319 5.40129 13.3819 5.44977 13.4504 5.59451C14.151 7.07892 13.3707 8.84427 11.8086 9.36323L11.6805 9.40519C11.5278 9.4545 11.3778 9.40602 11.3094 9.26128ZM4.48738 7.66696C3.94269 9.36469 5.05411 10.9426 6.83419 11.0417L6.98041 11.049C7.15418 11.0577 7.31041 10.9675 7.36355 10.8017C7.90783 9.10388 6.79682 7.52607 5.01634 7.42688L4.87012 7.41952C4.69675 7.41098 4.54052 7.50119 4.48738 7.66696ZM13.1088 13.6653C12.2966 12.0215 13.0668 10.1214 14.7276 9.60841L14.8644 9.56659C15.0263 9.51846 15.19 9.57626 15.2691 9.73649C16.0808 11.3805 15.3106 13.2807 13.6502 13.7938L13.5134 13.8356C13.3515 13.8837 13.1878 13.8259 13.1088 13.6653ZM5.49651 13.2557C7.19086 12.3799 9.05238 13.2714 9.4736 15.1316C9.48615 15.1867 9.49735 15.2376 9.50718 15.2844C9.54702 15.466 9.47973 15.6471 9.31439 15.7323C7.62033 16.6086 5.75892 15.7167 5.3376 13.8569L5.30361 13.7039C5.26418 13.5225 5.33106 13.3412 5.49651 13.2557ZM7.60484 18.4703C8.95806 17.0751 11.0454 17.3337 12.0548 18.9945L12.1368 19.1311C12.2339 19.294 12.2278 19.4911 12.0955 19.627C10.7427 21.0223 8.6549 20.7636 7.64558 19.1024C7.6157 19.0534 7.58838 19.0078 7.56363 18.9658C7.46638 18.8033 7.47256 18.6062 7.60484 18.4703ZM15.7446 17.4548C14.7 15.8163 15.4344 13.8447 17.2835 13.2471L17.4352 13.1984C17.6161 13.1413 17.8062 13.1932 17.908 13.3534C18.9525 14.9922 18.2186 16.9635 16.3695 17.5612L16.217 17.6097C16.0365 17.6668 15.8464 17.615 15.7445 17.4552" fill="white" fill-opacity="0.28"/>
<path d="M9.25992 9.36069C12.0695 18.3948 18.7356 22.7961 18.7356 22.7961M7.97265 6.61071C6.97525 5.61252 6.79472 3.97806 7.55037 2.78623L7.95383 2.15076C7.98763 2.09751 8.03297 2.05253 8.08649 2.01915C8.14001 1.98578 8.20035 1.96485 8.26304 1.95793C8.32574 1.951 8.38919 1.95825 8.4487 1.97914C8.50822 2.00003 8.56228 2.03403 8.60689 2.07862L9.13899 2.61085C10.1365 3.60863 10.3169 5.2435 9.56138 6.43492L8.87595 7.51438L7.97265 6.61071ZM11.3094 9.26128C10.6088 7.77688 11.3889 6.01193 12.9511 5.49297C12.9974 5.47748 13.04 5.46349 13.0791 5.45101C13.2319 5.40129 13.3818 5.45018 13.4503 5.59492C14.1509 7.07932 13.3707 8.84427 11.8086 9.36323L11.6805 9.40519C11.5278 9.4545 11.3778 9.40602 11.3094 9.26128ZM4.48738 7.66696C3.94269 9.36469 5.05411 10.9426 6.83419 11.0417L6.98041 11.049C7.15418 11.0577 7.31041 10.9675 7.36355 10.8017C7.90783 9.10388 6.79682 7.52607 5.01634 7.42688L4.87012 7.41952C4.69675 7.41098 4.54052 7.50119 4.48738 7.66696ZM13.1088 13.6653C12.2966 12.0215 13.0668 10.1214 14.7276 9.60841L14.8644 9.56659C15.0263 9.51846 15.19 9.57626 15.2691 9.73649C16.0808 11.3805 15.3106 13.2807 13.6502 13.7938L13.5134 13.8356C13.3515 13.8837 13.1878 13.8259 13.1088 13.6653ZM5.49651 13.2557C7.19097 12.3795 9.05238 13.2714 9.47371 15.1312L9.50729 15.284C9.54713 15.4656 9.47973 15.6471 9.31439 15.7323C7.62033 16.6086 5.75892 15.7167 5.3376 13.8569L5.30361 13.7039C5.26429 13.5221 5.33116 13.3408 5.49651 13.2557ZM7.60484 18.4703C8.95806 17.0751 11.0454 17.3337 12.0548 18.9945L12.1368 19.1311C12.2339 19.294 12.2278 19.4911 12.0955 19.627C10.7426 21.0223 8.6549 20.7636 7.64558 19.1024C7.6157 19.0534 7.58838 19.0078 7.56363 18.9658C7.46638 18.8033 7.47256 18.6062 7.60484 18.4703ZM15.7445 17.4552C14.7 15.8163 15.4343 13.8451 17.2834 13.2475C17.3379 13.2295 17.3885 13.2133 17.4351 13.1988C17.616 13.1418 17.8061 13.1936 17.908 13.3534C18.9525 14.9922 18.2185 16.9635 16.3693 17.5616L16.2169 17.6101C16.0365 17.6668 15.8463 17.6154 15.7445 17.4552Z" stroke="white" stroke-opacity="0.28" stroke-width="1.37784" stroke-linecap="round" stroke-linejoin="round"/>
</g>
<path d="M28.295 16.483C27.687 16.483 27.163 16.367 26.723 16.135C26.283 15.903 25.943 15.579 25.703 15.163C25.463 14.747 25.343 14.263 25.343 13.711H26.555C26.555 14.047 26.623 14.343 26.759 14.599C26.903 14.855 27.107 15.055 27.371 15.199C27.635 15.343 27.943 15.415 28.295 15.415C28.655 15.415 28.963 15.351 29.219 15.223C29.483 15.095 29.687 14.915 29.831 14.683C29.975 14.443 30.047 14.167 30.047 13.855C30.047 13.615 30.007 13.403 29.927 13.219C29.855 13.035 29.747 12.883 29.603 12.763C29.467 12.643 29.303 12.555 29.111 12.499C28.919 12.435 28.703 12.403 28.463 12.403H27.515V11.455H28.391C28.727 11.455 29.007 11.395 29.231 11.275C29.455 11.147 29.623 10.979 29.735 10.771C29.855 10.555 29.915 10.311 29.915 10.039C29.915 9.751 29.847 9.507 29.711 9.307C29.583 9.099 29.399 8.943 29.159 8.839C28.927 8.735 28.647 8.683 28.319 8.683C27.967 8.683 27.663 8.755 27.407 8.899C27.159 9.035 26.967 9.227 26.831 9.475C26.703 9.723 26.635 10.015 26.627 10.351H25.415C25.415 9.799 25.535 9.319 25.775 8.911C26.023 8.495 26.367 8.175 26.807 7.951C27.255 7.727 27.775 7.615 28.367 7.615C28.799 7.615 29.187 7.671 29.531 7.783C29.875 7.887 30.171 8.039 30.419 8.239C30.667 8.439 30.855 8.679 30.983 8.959C31.119 9.239 31.187 9.551 31.187 9.895C31.187 10.215 31.131 10.507 31.019 10.771C30.907 11.035 30.751 11.259 30.551 11.443C30.351 11.627 30.115 11.763 29.843 11.851V11.923C30.163 11.995 30.431 12.127 30.647 12.319C30.863 12.511 31.027 12.747 31.139 13.027C31.259 13.299 31.319 13.611 31.319 13.963C31.319 14.467 31.191 14.907 30.935 15.283C30.687 15.659 30.335 15.955 29.879 16.171C29.431 16.379 28.903 16.483 28.295 16.483ZM32.8171 16.375V10.027H33.9211L33.9811 11.155H34.0411C34.1771 10.747 34.4131 10.443 34.7491 10.243C35.0851 10.043 35.4611 9.943 35.8771 9.943C35.9491 9.943 36.0131 9.947 36.0691 9.955C36.1331 9.955 36.1931 9.959 36.2491 9.967V11.131C36.2011 11.123 36.1411 11.119 36.0691 11.119C36.0051 11.119 35.9371 11.119 35.8651 11.119C35.4891 11.119 35.1691 11.183 34.9051 11.311C34.6411 11.439 34.4371 11.627 34.2931 11.875C34.1491 12.115 34.0651 12.407 34.0411 12.751V16.375H32.8171ZM39.2896 16.483C38.9056 16.483 38.5536 16.411 38.2336 16.267C37.9216 16.123 37.6496 15.915 37.4176 15.643C37.1856 15.363 37.0056 15.019 36.8776 14.611C36.7576 14.203 36.6976 13.731 36.6976 13.195C36.6976 12.491 36.8056 11.895 37.0216 11.407C37.2456 10.919 37.5496 10.551 37.9336 10.303C38.3256 10.047 38.7776 9.919 39.2896 9.919C39.6416 9.919 39.9616 9.975 40.2496 10.087C40.5456 10.199 40.7936 10.359 40.9936 10.567C41.2016 10.767 41.3536 11.003 41.4496 11.275H41.5216V7.627H42.7576V16.375H41.5696L41.5216 15.115H41.4496C41.2976 15.523 41.0336 15.855 40.6576 16.111C40.2816 16.359 39.8256 16.483 39.2896 16.483ZM39.7216 15.463C40.1136 15.463 40.4416 15.371 40.7056 15.187C40.9696 15.003 41.1696 14.767 41.3056 14.479C41.4416 14.191 41.5096 13.883 41.5096 13.555V12.835C41.5096 12.595 41.4696 12.363 41.3896 12.139C41.3176 11.907 41.2056 11.703 41.0536 11.527C40.9096 11.343 40.7256 11.199 40.5016 11.095C40.2776 10.983 40.0176 10.927 39.7216 10.927C39.3696 10.927 39.0616 11.015 38.7976 11.191C38.5336 11.359 38.3296 11.611 38.1856 11.947C38.0416 12.275 37.9696 12.691 37.9696 13.195C37.9696 13.691 38.0416 14.107 38.1856 14.443C38.3296 14.779 38.5336 15.035 38.7976 15.211C39.0616 15.379 39.3696 15.463 39.7216 15.463Z" fill="white"/>
<g clip-path="url(#clip1_887_2519)">
<path d="M60.5273 6.61071C61.5247 5.61252 61.7053 3.97806 60.9496 2.78623L60.5462 2.15076C60.5124 2.09751 60.467 2.05253 60.4135 2.01915C60.36 1.98578 60.2997 1.96485 60.237 1.95793C60.1743 1.951 60.1108 1.95825 60.0513 1.97914C59.9918 2.00003 59.9377 2.03403 59.8931 2.07862L59.361 2.61085C58.3635 3.60863 58.1831 5.2435 58.9386 6.43492L59.6241 7.51438L60.5273 6.61071ZM57.1906 9.26128C57.8912 7.77688 57.1109 6.01152 55.5488 5.49257L55.4208 5.4506C55.2681 5.40129 55.1181 5.44977 55.0496 5.59451C54.349 7.07892 55.1293 8.84427 56.6914 9.36323L56.8195 9.40519C56.9722 9.4545 57.1222 9.40602 57.1906 9.26128ZM64.0126 7.66696C64.5573 9.36469 63.4459 10.9426 61.6658 11.0417L61.5196 11.049C61.3458 11.0577 61.1896 10.9675 61.1365 10.8017C60.5922 9.10388 61.7032 7.52607 63.4837 7.42688L63.6299 7.41952C63.8032 7.41098 63.9595 7.50119 64.0126 7.66696ZM55.3912 13.6653C56.2034 12.0215 55.4332 10.1214 53.7724 9.60841L53.6356 9.56659C53.4737 9.51846 53.31 9.57626 53.2309 9.73649C52.4192 11.3805 53.1894 13.2807 54.8498 13.7938L54.9866 13.8356C55.1485 13.8837 55.3122 13.8259 55.3912 13.6653ZM63.0035 13.2557C61.3091 12.3799 59.4476 13.2714 59.0264 15.1316C59.0138 15.1867 59.0027 15.2376 58.9928 15.2844C58.953 15.466 59.0203 15.6471 59.1856 15.7323C60.8797 16.6086 62.7411 15.7167 63.1624 13.8569L63.1964 13.7039C63.2358 13.5225 63.1689 13.3412 63.0035 13.2557ZM60.8952 18.4703C59.5419 17.0751 57.4546 17.3337 56.4452 18.9945L56.3632 19.1311C56.2661 19.294 56.2722 19.4911 56.4045 19.627C57.7573 21.0223 59.8451 20.7636 60.8544 19.1024C60.8843 19.0534 60.9116 19.0078 60.9364 18.9658C61.0336 18.8033 61.0274 18.6062 60.8952 18.4703ZM52.7554 17.4548C53.8 15.8163 53.0656 13.8447 51.2165 13.2471L51.0648 13.1984C50.8839 13.1413 50.6938 13.1932 50.592 13.3534C49.5475 14.9922 50.2814 16.9635 52.1305 17.5612L52.283 17.6097C52.4635 17.6668 52.6536 17.615 52.7555 17.4552" fill="white" fill-opacity="0.28"/>
<path d="M59.2401 9.36069C56.4305 18.3948 49.7644 22.7961 49.7644 22.7961M60.5273 6.61071C61.5247 5.61252 61.7053 3.97806 60.9496 2.78623L60.5462 2.15076C60.5124 2.09751 60.467 2.05253 60.4135 2.01915C60.36 1.98578 60.2997 1.96485 60.237 1.95793C60.1743 1.951 60.1108 1.95825 60.0513 1.97914C59.9918 2.00003 59.9377 2.03403 59.8931 2.07862L59.361 2.61085C58.3635 3.60863 58.1831 5.2435 58.9386 6.43492L59.6241 7.51438L60.5273 6.61071ZM57.1906 9.26128C57.8912 7.77688 57.1111 6.01193 55.5489 5.49297C55.5026 5.47748 55.46 5.46349 55.4209 5.45101C55.2681 5.40129 55.1182 5.45018 55.0497 5.59492C54.3491 7.07932 55.1293 8.84427 56.6914 9.36323L56.8195 9.40519C56.9722 9.4545 57.1222 9.40602 57.1906 9.26128ZM64.0126 7.66696C64.5573 9.36469 63.4459 10.9426 61.6658 11.0417L61.5196 11.049C61.3458 11.0577 61.1896 10.9675 61.1365 10.8017C60.5922 9.10388 61.7032 7.52607 63.4837 7.42688L63.6299 7.41952C63.8032 7.41098 63.9595 7.50119 64.0126 7.66696ZM55.3912 13.6653C56.2034 12.0215 55.4332 10.1214 53.7724 9.60841L53.6356 9.56659C53.4737 9.51846 53.31 9.57626 53.2309 9.73649C52.4192 11.3805 53.1894 13.2807 54.8498 13.7938L54.9866 13.8356C55.1485 13.8837 55.3122 13.8259 55.3912 13.6653ZM63.0035 13.2557C61.309 12.3795 59.4476 13.2714 59.0263 15.1312L58.9927 15.284C58.9529 15.4656 59.0203 15.6471 59.1856 15.7323C60.8797 16.6086 62.7411 15.7167 63.1624 13.8569L63.1964 13.7039C63.2357 13.5221 63.1688 13.3408 63.0035 13.2557ZM60.8952 18.4703C59.5419 17.0751 57.4546 17.3337 56.4452 18.9945L56.3632 19.1311C56.2661 19.294 56.2722 19.4911 56.4045 19.627C57.7574 21.0223 59.8451 20.7636 60.8544 19.1024C60.8843 19.0534 60.9116 19.0078 60.9364 18.9658C61.0336 18.8033 61.0274 18.6062 60.8952 18.4703ZM52.7555 17.4552C53.8 15.8163 53.0657 13.8451 51.2166 13.2475C51.1621 13.2295 51.1115 13.2133 51.0649 13.1988C50.884 13.1418 50.6939 13.1936 50.592 13.3534C49.5475 14.9922 50.2815 16.9635 52.1307 17.5616L52.2831 17.6101C52.4635 17.6668 52.6537 17.6154 52.7555 17.4552Z" stroke="white" stroke-opacity="0.28" stroke-width="1.37784" stroke-linecap="round" stroke-linejoin="round"/>
</g>
<defs>
<clipPath id="clip0_887_2519">
<rect width="20.2083" height="20.2083" fill="white" transform="translate(0 19.5197) rotate(-75)"/>
</clipPath>
<clipPath id="clip1_887_2519">
<rect width="20.2083" height="20.2083" fill="white" transform="matrix(-0.258819 -0.965926 -0.965926 0.258819 68.5 19.5197)"/>
</clipPath>
</defs>
</svg>
